<svg width="30" height="30" xmlns="http://www.w3.org/2000/svg">
	<g>
	  <rect fill="none" id="canvas_background" height="402" width="582" y="-1" x="-1"/>
	</g>
	<g>
	  <path
		id="svg_1"
		fill="#1a76cb"
		d="m13.606,0.973a1.485,1.485 0 0 1 2.788,0l3.043,7.653c0.217,0.547 0.709,0.92 1.273,0.968l7.9,0.662c1.337,0.112 1.88,1.86 0.86,2.773l-6.018,5.393c-0.43,0.385 -0.618,0.989 -0.486,1.565l1.838,8.063c0.312,1.366 -1.109,2.446 -2.255,1.714l-6.762,-4.321a1.453,1.453 0 0 0 -1.574,0l-6.763,4.32c-1.145,0.733 -2.566,-0.347 -2.255,-1.713l1.84,-8.063a1.623,1.623 0 0 0 -0.487,-1.565l-6.018,-5.393c-1.02,-0.914 -0.477,-2.66 0.86,-2.773l7.9,-0.662a1.517,1.517 0 0 0 1.273,-0.968l3.043,-7.653"
		onmouseover="this.style.fill='#ff0000'"
		onmouseout="this.style.fill='#ff0707'"
	  />
	</g>
  </svg>